<?xml version="1.0" encoding="UTF-8"?>
<svg xmlns="http://www.w3.org/2000/svg" xmlns:xlink="http://www.w3.org/1999/xlink" width="5px" height="5px" viewBox="0 0 5 5" version="1.1">
<g id="surface1">
<path style=" stroke:none;fill-rule:nonzero;fill:rgb(47.058824%,56.470588%,61.176471%);fill-opacity:1;" d="M 3.496094 3.429688 L 3.386719 3.527344 L 3.070312 3.1875 L 2.957031 3.066406 L 3.066406 2.964844 L 3.175781 3.085938 Z M 3.496094 3.429688 "/>
<path style=" stroke:none;fill-rule:nonzero;fill:rgb(27.45098%,36.862745%,40%);fill-opacity:1;" d="M 3.175781 3.085938 C 3.160156 3.105469 3.144531 3.121094 3.125 3.136719 C 3.105469 3.15625 3.089844 3.171875 3.070312 3.1875 L 2.957031 3.066406 L 3.066406 2.964844 Z M 3.511719 3.445312 C 3.496094 3.460938 3.476562 3.476562 3.460938 3.496094 C 3.441406 3.511719 3.425781 3.527344 3.40625 3.542969 L 3.292969 3.421875 L 3.398438 3.324219 Z M 3.511719 3.445312 "/>
<path style=" stroke:none;fill-rule:nonzero;fill:rgb(32.941176%,43.137255%,47.843137%);fill-opacity:1;" d="M 3.621094 1.839844 C 3.597656 2.550781 3.144531 3.179688 2.472656 3.433594 C 1.804688 3.683594 1.050781 3.503906 0.5625 2.984375 C -0.105469 2.269531 -0.0664062 1.148438 0.648438 0.484375 C 1.363281 -0.183594 2.484375 -0.144531 3.148438 0.570312 C 3.46875 0.914062 3.640625 1.367188 3.621094 1.839844 Z M 3.621094 1.839844 "/>
<path style=" stroke:none;fill-rule:nonzero;fill:rgb(56.470588%,79.215686%,97.647059%);fill-opacity:1;" d="M 3.292969 1.828125 C 3.265625 2.601562 2.628906 3.214844 1.855469 3.214844 C 1.839844 3.214844 1.820312 3.214844 1.804688 3.214844 C 1.714844 3.210938 1.628906 3.199219 1.539062 3.179688 C 1.375 3.144531 1.214844 3.078125 1.074219 2.984375 C 0.972656 2.921875 0.882812 2.84375 0.804688 2.757812 C 0.269531 2.175781 0.304688 1.273438 0.882812 0.734375 C 1.457031 0.195312 2.363281 0.222656 2.90625 0.796875 C 2.964844 0.859375 3.015625 0.925781 3.0625 0.996094 C 3.15625 1.136719 3.222656 1.296875 3.257812 1.460938 C 3.285156 1.582031 3.296875 1.703125 3.292969 1.828125 Z M 3.292969 1.828125 "/>
<path style="fill:none;stroke-width:15;stroke-linecap:round;stroke-linejoin:round;stroke:rgb(100%,100%,100%);stroke-opacity:1;stroke-miterlimit:4;" d="M 238.8 103.2 C 189.2 75.2 126 92.4 98 142 " transform="matrix(0.00976562,0,0,0.00976562,0,0)"/>
<path style=" stroke:none;fill-rule:nonzero;fill:rgb(36.862745%,20.784314%,69.411765%);fill-opacity:1;" d="M 4.816406 4.90625 C 4.757812 4.964844 4.675781 4.996094 4.59375 4.996094 L 4.582031 4.996094 C 4.496094 4.992188 4.414062 4.957031 4.355469 4.890625 L 3.152344 3.648438 L 3.628906 3.203125 L 4.832031 4.445312 C 4.957031 4.578125 4.949219 4.785156 4.816406 4.90625 Z M 4.816406 4.90625 "/>
<path style=" stroke:none;fill-rule:nonzero;fill:rgb(29.019608%,16.470588%,58.823529%);fill-opacity:1;" d="M 4.859375 4.859375 C 4.796875 4.945312 4.699219 4.996094 4.59375 4.996094 L 4.582031 4.996094 C 4.496094 4.992188 4.414062 4.957031 4.355469 4.890625 L 3.152344 3.648438 L 3.230469 3.578125 L 4.429688 4.816406 C 4.488281 4.878906 4.570312 4.917969 4.65625 4.921875 L 4.667969 4.921875 C 4.738281 4.921875 4.804688 4.898438 4.859375 4.859375 Z M 4.859375 4.859375 "/>
<path style="fill:none;stroke-width:3;stroke-linecap:round;stroke-linejoin:round;stroke:rgb(100%,100%,100%);stroke-opacity:1;stroke-miterlimit:4;" d="M 371.2 343.2 L 487.2 458.8 " transform="matrix(0.00976562,0,0,0.00976562,0,0)"/>
<path style=" stroke:none;fill-rule:nonzero;fill:rgb(32.941176%,43.137255%,47.843137%);fill-opacity:1;" d="M 2.988281 0.722656 C 2.402344 0.101562 1.429688 0.0703125 0.804688 0.652344 C 0.183594 1.230469 0.144531 2.207031 0.722656 2.832031 C 1.003906 3.132812 1.390625 3.3125 1.800781 3.324219 C 1.820312 3.324219 1.839844 3.324219 1.855469 3.324219 C 2.472656 3.324219 3.03125 2.957031 3.273438 2.394531 C 3.519531 1.828125 3.40625 1.171875 2.988281 0.722656 Z M 3.292969 1.828125 C 3.265625 2.601562 2.628906 3.214844 1.855469 3.214844 C 1.839844 3.214844 1.820312 3.214844 1.804688 3.214844 C 1.222656 3.191406 0.710938 2.824219 0.507812 2.28125 C 0.304688 1.734375 0.449219 1.121094 0.875 0.726562 C 1.300781 0.328125 1.921875 0.226562 2.449219 0.46875 C 2.980469 0.710938 3.3125 1.246094 3.292969 1.828125 Z M 3.292969 1.828125 "/>
<path style=" stroke:none;fill-rule:nonzero;fill:rgb(27.45098%,36.862745%,40%);fill-opacity:1;" d="M 2.988281 0.722656 C 2.402344 0.101562 1.429688 0.0703125 0.804688 0.652344 C 0.183594 1.230469 0.144531 2.207031 0.722656 2.832031 C 1.003906 3.132812 1.390625 3.3125 1.800781 3.324219 C 1.820312 3.324219 1.839844 3.324219 1.855469 3.324219 C 2.472656 3.324219 3.03125 2.957031 3.273438 2.394531 C 3.519531 1.828125 3.40625 1.171875 2.988281 0.722656 Z M 3.292969 1.828125 C 3.265625 2.601562 2.628906 3.214844 1.855469 3.214844 C 1.839844 3.214844 1.820312 3.214844 1.804688 3.214844 C 1.222656 3.191406 0.710938 2.824219 0.507812 2.28125 C 0.304688 1.734375 0.449219 1.121094 0.875 0.726562 C 1.300781 0.328125 1.921875 0.226562 2.449219 0.46875 C 2.980469 0.710938 3.3125 1.246094 3.292969 1.828125 Z M 3.292969 1.828125 "/>
</g>
</svg>
