<?xml version="1.0" encoding="UTF-8"?>
<svg xmlns="http://www.w3.org/2000/svg" xmlns:xlink="http://www.w3.org/1999/xlink" width="15px" height="15px" viewBox="0 0 15 15" version="1.1">
<g id="surface1">
<path style=" stroke:none;fill-rule:nonzero;fill:rgb(47.058824%,56.470588%,61.176471%);fill-opacity:1;" d="M 10.488281 10.285156 L 10.164062 10.582031 L 9.210938 9.5625 L 8.871094 9.199219 L 9.195312 8.898438 L 9.53125 9.261719 Z M 10.488281 10.285156 "/>
<path style=" stroke:none;fill-rule:nonzero;fill:rgb(27.45098%,36.862745%,40%);fill-opacity:1;" d="M 9.53125 9.261719 C 9.480469 9.3125 9.429688 9.363281 9.375 9.414062 C 9.320312 9.464844 9.265625 9.511719 9.210938 9.5625 L 8.871094 9.199219 L 9.195312 8.898438 Z M 10.539062 10.332031 C 10.488281 10.382812 10.433594 10.433594 10.378906 10.484375 C 10.328125 10.535156 10.273438 10.585938 10.21875 10.632812 L 9.878906 10.269531 L 10.199219 9.96875 Z M 10.539062 10.332031 "/>
<path style=" stroke:none;fill-rule:nonzero;fill:rgb(32.941176%,43.137255%,47.843137%);fill-opacity:1;" d="M 10.867188 5.515625 C 10.789062 7.65625 9.429688 9.542969 7.421875 10.296875 C 5.414062 11.046875 3.148438 10.515625 1.683594 8.949219 C -0.3125 6.804688 -0.195312 3.449219 1.945312 1.449219 C 4.085938 -0.546875 7.449219 -0.429688 9.445312 1.710938 C 10.40625 2.738281 10.917969 4.105469 10.867188 5.515625 Z M 10.867188 5.515625 "/>
<path style=" stroke:none;fill-rule:nonzero;fill:rgb(56.470588%,79.215686%,97.647059%);fill-opacity:1;" d="M 9.875 5.480469 C 9.796875 7.800781 7.890625 9.644531 5.570312 9.644531 C 5.519531 9.644531 5.464844 9.644531 5.414062 9.640625 C 5.148438 9.632812 4.882812 9.597656 4.621094 9.539062 C 4.121094 9.429688 3.648438 9.230469 3.21875 8.953125 C 2.921875 8.761719 2.652344 8.53125 2.410156 8.273438 C 0.804688 6.527344 0.910156 3.816406 2.644531 2.199219 C 4.375 0.582031 7.089844 0.667969 8.71875 2.390625 C 8.890625 2.574219 9.046875 2.773438 9.1875 2.984375 C 9.464844 3.414062 9.664062 3.886719 9.773438 4.386719 C 9.855469 4.746094 9.890625 5.113281 9.875 5.480469 Z M 9.875 5.480469 "/>
<path style="fill:none;stroke-width:15;stroke-linecap:round;stroke-linejoin:round;stroke:rgb(100%,100%,100%);stroke-opacity:1;stroke-miterlimit:4;" d="M 238.666667 103.2 C 189.066667 75.066667 126.133333 92.4 98 141.866667 " transform="matrix(0.0292969,0,0,0.0292969,0,0)"/>
<path style=" stroke:none;fill-rule:nonzero;fill:rgb(36.862745%,20.784314%,69.411765%);fill-opacity:1;" d="M 14.449219 14.722656 C 14.269531 14.894531 14.027344 14.988281 13.78125 14.988281 L 13.746094 14.988281 C 13.484375 14.980469 13.242188 14.867188 13.0625 14.675781 L 9.453125 10.945312 L 10.890625 9.605469 L 14.5 13.335938 C 14.867188 13.734375 14.84375 14.355469 14.449219 14.722656 Z M 14.449219 14.722656 "/>
<path style=" stroke:none;fill-rule:nonzero;fill:rgb(29.019608%,16.470588%,58.823529%);fill-opacity:1;" d="M 14.578125 14.578125 C 14.394531 14.835938 14.097656 14.988281 13.78125 14.988281 L 13.746094 14.988281 C 13.484375 14.980469 13.238281 14.867188 13.0625 14.679688 L 9.453125 10.945312 L 9.6875 10.730469 L 13.289062 14.453125 C 13.464844 14.640625 13.710938 14.753906 13.972656 14.761719 L 14.003906 14.761719 C 14.210938 14.761719 14.410156 14.699219 14.578125 14.578125 Z M 14.578125 14.578125 "/>
<path style="fill:none;stroke-width:3;stroke-linecap:round;stroke-linejoin:round;stroke:rgb(100%,100%,100%);stroke-opacity:1;stroke-miterlimit:4;" d="M 371.066667 342.933333 L 487.066667 458.933333 " transform="matrix(0.0292969,0,0,0.0292969,0,0)"/>
<path style=" stroke:none;fill-rule:nonzero;fill:rgb(32.941176%,43.137255%,47.843137%);fill-opacity:1;" d="M 8.960938 2.164062 C 7.207031 0.304688 4.285156 0.210938 2.414062 1.953125 C 0.546875 3.695312 0.4375 6.621094 2.171875 8.5 C 3.007812 9.402344 4.171875 9.933594 5.402344 9.972656 C 5.460938 9.972656 5.515625 9.976562 5.570312 9.976562 C 7.417969 9.972656 9.089844 8.875 9.824219 7.179688 C 10.558594 5.484375 10.222656 3.515625 8.960938 2.164062 Z M 9.875 5.480469 C 9.796875 7.800781 7.890625 9.644531 5.570312 9.644531 C 5.519531 9.644531 5.464844 9.644531 5.414062 9.640625 C 3.671875 9.578125 2.136719 8.476562 1.527344 6.839844 C 0.917969 5.207031 1.347656 3.367188 2.625 2.175781 C 3.898438 0.988281 5.765625 0.683594 7.351562 1.40625 C 8.941406 2.128906 9.9375 3.738281 9.875 5.480469 Z M 9.875 5.480469 "/>
<path style=" stroke:none;fill-rule:nonzero;fill:rgb(27.45098%,36.862745%,40%);fill-opacity:1;" d="M 8.960938 2.164062 C 7.207031 0.304688 4.285156 0.210938 2.414062 1.953125 C 0.546875 3.695312 0.4375 6.621094 2.171875 8.5 C 3.007812 9.402344 4.171875 9.933594 5.402344 9.972656 C 5.460938 9.972656 5.515625 9.976562 5.570312 9.976562 C 7.417969 9.972656 9.089844 8.875 9.824219 7.179688 C 10.558594 5.484375 10.222656 3.515625 8.960938 2.164062 Z M 9.875 5.480469 C 9.796875 7.800781 7.890625 9.644531 5.570312 9.644531 C 5.519531 9.644531 5.464844 9.644531 5.414062 9.640625 C 3.671875 9.578125 2.136719 8.476562 1.527344 6.839844 C 0.917969 5.207031 1.347656 3.367188 2.625 2.175781 C 3.898438 0.988281 5.765625 0.683594 7.351562 1.40625 C 8.941406 2.128906 9.9375 3.738281 9.875 5.480469 Z M 9.875 5.480469 "/>
</g>
</svg>
